<?xml version='1.0' encoding='ascii'?>
<svg xmlns="http://www.w3.org/2000/svg" version="1.1" width="1920" height="1080">
    <g id="ViewLayer_LineSet" xmlns:inkscape="http://www.inkscape.org/namespaces/inkscape" inkscape:groupmode="lineset" inkscape:label="ViewLayer_LineSet">
        <g xmlns:inkscape="http://www.inkscape.org/namespaces/inkscape" inkscape:groupmode="layer" id="strokes" inkscape:label="strokes">
            <path fill="bright-yellow" stroke-width="3.0" stroke-linecap="butt" stroke-opacity="1.0" stroke="rgb(0, 0, 139)" stroke-linejoin="round" d=" M 1189.309, 194.910 1179.905, 191.510 1174.821, 189.672 1165.329, 192.818 1155.836, 195.963 1146.344, 199.109 1136.852, 202.254 1127.359, 205.400 1117.867, 208.545 1108.374, 211.691 1098.882, 214.836 1089.390, 217.982 1079.897, 221.127 1070.405, 224.273 1060.912, 227.418 1051.420, 230.564 1041.927, 233.709 1032.435, 236.855 1022.943, 240.000 1013.450, 243.146 1003.958, 246.291 994.465, 249.437 984.973, 252.582 975.481, 255.728 965.988, 258.873 956.496, 262.019 947.003, 265.164 937.511, 268.310 928.019, 271.455 918.526, 274.601 909.034, 277.746 899.541, 280.892 890.049, 284.037 880.557, 287.183 871.064, 290.328 861.572, 293.474 852.079, 296.619 842.587, 299.765 833.094, 302.910 823.602, 306.056 814.110, 309.201 804.617, 312.347 795.125, 315.492 785.632, 318.638 776.140, 321.783 766.648, 324.929 757.155, 328.074 747.663, 331.220 738.170, 334.365 728.678, 337.511 719.186, 340.656 709.693, 343.802 700.201, 346.948 690.708, 350.093 681.216, 353.239 671.724, 356.384 662.231, 359.529 652.739, 362.675 643.246, 365.820 637.609, 367.688 638.001, 377.681 638.393, 387.673 638.785, 397.665 639.176, 407.658 639.568, 417.650 639.960, 427.642 640.351, 437.635 640.743, 447.627 641.135, 457.619 641.527, 467.612 641.918, 477.604 642.310, 487.596 642.702, 497.589 643.093, 507.581 643.485, 517.573 643.877, 527.566 644.268, 537.558 644.387, 540.588 653.059, 545.569 658.111, 548.471 665.018, 545.808 674.348, 542.211 683.679, 538.613 693.009, 535.016 693.641, 534.772 702.971, 531.175 712.302, 527.577 721.632, 523.980 730.963, 520.382 740.293, 516.785 749.624, 513.187 758.954, 509.590 768.285, 505.992 777.615, 502.395 786.946, 498.797 796.276, 495.200 805.607, 491.602 814.937, 488.005 824.268, 484.407 833.598, 480.810 842.929, 477.212 852.259, 473.615 861.590, 470.017 870.920, 466.420 880.251, 462.822 889.581, 459.225 898.912, 455.627 908.242, 452.030 917.573, 448.432 926.903, 444.835 936.234, 441.238 945.564, 437.640 954.895, 434.043 964.225, 430.445 973.556, 426.848 982.886, 423.250 992.217, 419.653 1001.547, 416.055 1010.878, 412.458 1020.208, 408.860 1029.539, 405.263 1038.869, 401.665 1048.200, 398.068 1057.530, 394.470 1066.861, 390.873 1076.191, 387.275 1085.522, 383.678 1094.852, 380.080 1104.183, 376.483 1113.513, 372.885 1122.844, 369.288 1132.174, 365.690 1139.569, 362.839 1148.900, 359.242 1158.230, 355.644 1164.052, 353.400 1173.382, 349.802 1179.604, 347.403 1180.240, 337.423 1180.875, 327.443 1181.510, 317.464 1182.145, 307.484 1182.780, 297.504 1183.415, 287.524 1184.050, 277.544 1184.686, 267.565 1185.321, 257.585 1185.956, 247.605 1186.591, 237.625 1187.226, 227.645 1187.861, 217.666 1188.496, 207.686 1189.131, 197.706 1189.309, 194.910 " />
            <path fill="orange" stroke-width="3.0" stroke-linecap="butt" stroke-opacity="1.0" stroke="rgb(128, 0, 128)" stroke-linejoin="round" d=" M 637.609, 367.688 646.525, 372.217 651.765, 374.878 " />
            <path fill="pink" stroke-width="3.0" stroke-linecap="butt" stroke-opacity="1.0" stroke="rgb(0, 128, 0)" stroke-linejoin="round" d=" M 658.111, 548.471 657.746, 538.478 657.380, 528.484 657.015, 518.491 656.650, 508.498 656.284, 498.504 655.919, 488.511 655.554, 478.518 655.188, 468.524 654.823, 458.531 654.458, 448.538 654.092, 438.544 653.727, 428.551 653.362, 418.558 652.996, 408.564 652.631, 398.571 652.266, 388.578 651.900, 378.584 651.765, 374.878 661.247, 371.704 670.730, 368.529 680.213, 365.354 689.695, 362.179 699.178, 359.005 708.661, 355.830 718.143, 352.655 727.626, 349.480 737.109, 346.306 746.591, 343.131 756.074, 339.956 765.557, 336.781 775.039, 333.607 784.522, 330.432 794.005, 327.257 803.487, 324.082 812.970, 320.907 822.453, 317.733 831.935, 314.558 841.418, 311.383 850.901, 308.208 860.383, 305.034 869.866, 301.859 879.349, 298.684 888.831, 295.509 898.314, 292.335 907.797, 289.160 917.279, 285.985 926.762, 282.810 936.245, 279.636 945.727, 276.461 955.210, 273.286 964.693, 270.111 974.175, 266.937 983.658, 263.762 993.141, 260.587 1002.623, 257.412 1012.106, 254.237 1021.589, 251.063 1031.071, 247.888 1040.554, 244.713 1050.036, 241.538 1059.519, 238.364 1069.002, 235.189 1078.484, 232.014 1087.967, 228.839 1097.450, 225.665 1106.932, 222.490 1116.415, 219.315 1125.898, 216.140 1135.380, 212.966 1144.863, 209.791 1154.346, 206.616 1163.828, 203.441 1173.311, 200.267 1182.794, 197.092 1189.309, 194.910 " />
            <path fill="turquoise" stroke-width="3.0" stroke-linecap="butt" stroke-opacity="1.0" stroke="rgb(255, 0, 255)" stroke-linejoin="round" d=" M 665.018, 545.808 665.230, 555.806 665.442, 565.804 665.655, 575.801 665.867, 585.799 666.079, 595.797 666.292, 605.795 666.504, 615.792 666.716, 625.790 666.929, 635.788 667.141, 645.786 667.353, 655.783 667.566, 665.781 667.778, 675.779 667.990, 685.776 668.203, 695.774 668.415, 705.772 668.627, 715.770 668.840, 725.767 669.052, 735.765 669.264, 745.763 669.477, 755.761 669.689, 765.758 669.901, 775.756 670.114, 785.754 670.261, 792.715 670.715, 794.183 671.678, 795.563 673.115, 796.801 674.971, 797.849 677.175, 798.666 679.640, 799.220 682.273, 799.489 684.969, 799.462 687.625, 799.141 690.136, 798.539 692.405, 797.678 694.346, 796.593 695.882, 795.327 696.956, 793.928 697.528, 792.452 697.577, 790.954 697.423, 780.955 697.270, 770.956 697.116, 760.957 696.962, 750.958 696.809, 740.960 696.655, 730.961 696.501, 720.962 696.348, 710.963 696.194, 700.964 696.041, 690.965 695.887, 680.967 695.733, 670.968 695.580, 660.969 695.426, 650.970 695.273, 640.971 695.119, 630.973 694.965, 620.974 694.812, 610.975 694.658, 600.976 694.504, 590.977 694.351, 580.978 694.197, 570.980 694.044, 560.981 693.890, 550.982 693.736, 540.983 693.641, 534.772 " />
            <path fill="red" stroke-width="3.0" stroke-linecap="butt" stroke-opacity="1.0" stroke="rgb(128, 0, 128)" stroke-linejoin="round" d=" M 1139.569, 362.839 1138.842, 372.813 1138.116, 382.786 1137.389, 392.760 1136.663, 402.734 1135.936, 412.707 1135.209, 422.681 1134.483, 432.654 1133.756, 442.628 1133.030, 452.601 1132.303, 462.575 1131.576, 472.548 1130.850, 482.522 1130.123, 492.496 1129.396, 502.469 1128.670, 512.443 1127.943, 522.416 1127.217, 532.390 1126.490, 542.363 1125.763, 552.337 1125.037, 562.311 1124.310, 572.284 1123.583, 582.258 1123.170, 587.932 1123.440, 589.029 1124.135, 590.104 1125.229, 591.117 1126.681, 592.028 1128.435, 592.801 1130.424, 593.406 1132.570, 593.821 1134.791, 594.027 1137.000, 594.018 1139.111, 593.794 1141.042, 593.363 1142.719, 592.743 1144.077, 591.958 1145.064, 591.038 1145.643, 590.019 1145.792, 588.941 1146.564, 578.971 1147.337, 569.000 1148.110, 559.030 1148.883, 549.060 1149.656, 539.090 1150.429, 529.120 1151.202, 519.150 1151.975, 509.180 1152.748, 499.210 1153.521, 489.240 1154.294, 479.270 1155.067, 469.300 1155.840, 459.330 1156.613, 449.359 1157.385, 439.389 1158.158, 429.419 1158.931, 419.449 1159.704, 409.479 1160.477, 399.509 1161.250, 389.539 1162.023, 379.569 1162.796, 369.599 1163.569, 359.629 1164.052, 353.400 " />
        </g>
    </g>
</svg>
