<?xml version="1.0" standalone="no"?>
<!DOCTYPE svg PUBLIC "-//W3C//DTD SVG 20010904//EN"
 "http://www.w3.org/TR/2001/REC-SVG-20010904/DTD/svg10.dtd">
<svg version="1.0" xmlns="http://www.w3.org/2000/svg"
 width="258.000000pt" height="301.000000pt" viewBox="0 0 258.000000 301.000000"
 preserveAspectRatio="xMidYMid meet">

<g transform="translate(0.000000,301.000000) scale(0.100000,-0.100000)"
fill="red" stroke="white">
<path fill="red" stroke-width="3.0" stroke-linecap="butt" stroke-opacity="1.0" stroke="rgb(255,255,255)"  stroke-linejoin="round" d="M182 2560 l3 -222 925 -534 c509 -293 969 -559 1024 -591 54 -32 103
-59 107 -61 5 -2 9 95 9 215 l0 219 -1012 584 c-557 321 -1023 590 -1036 598
l-22 15 2 -223z m177 -48 c5 -10 16 -50 23 -88 l13 -69 5 65 c4 58 7 65 25 62
30 -5 55 -32 55 -59 0 -12 5 -23 10 -23 6 0 10 7 10 15 0 19 20 19 48 -1 20
-13 22 -24 22 -95 0 -85 -10 -99 -48 -61 -10 10 -38 28 -62 41 -25 12 -62 31
-83 42 -21 11 -41 29 -46 41 -5 14 -10 18 -15 10 -10 -17 -66 17 -66 39 0 14
11 51 35 117 6 17 60 -10 74 -36z m273 -149 c13 -12 19 -32 20 -77 l2 -61 3
58 c4 59 13 68 46 43 15 -12 17 -26 15 -82 -3 -66 -4 -69 -29 -72 -32 -4 -77
31 -95 74 -8 19 -14 56 -14 84 0 55 16 66 52 33z m181 -98 c26 -18 37 -33 37
-50 0 -25 -14 -33 -25 -15 -3 6 -10 10 -15 10 -5 0 2 -12 16 -27 33 -35 41
-70 21 -91 -15 -14 -20 -13 -64 14 -35 22 -49 37 -51 57 -4 30 9 35 28 12 7
-8 17 -15 23 -15 6 0 -1 12 -15 28 -30 33 -40 59 -33 83 9 26 33 24 78 -6z
m122 -72 c32 -20 45 -34 45 -50 0 -13 -4 -23 -8 -23 -5 0 -5 -25 1 -56 5 -30
7 -58 4 -61 -6 -5 -107 46 -108 56 -4 36 -6 130 -2 144 6 23 14 22 68 -10z
m95 -58 c21 -11 31 -25 36 -52 6 -33 8 -35 15 -15 10 26 26 28 57 6 20 -13 22
-24 22 -95 0 -85 -10 -99 -49 -60 -10 10 -41 28 -70 41 l-51 24 0 83 c0 46 2
83 5 83 4 0 19 -7 35 -15z m200 -112 c49 -28 49 -28 48 -78 0 -27 -4 -52 -8
-55 -4 -3 -2 -11 6 -18 12 -11 14 -4 14 43 0 45 3 55 17 55 23 0 53 -29 54
-54 1 -17 2 -18 6 -3 5 20 5 20 38 5 24 -11 25 -15 25 -95 0 -51 -4 -83 -10
-83 -6 0 -22 12 -37 26 -14 14 -27 23 -30 20 -10 -10 -63 25 -63 42 0 11 -3
13 -8 5 -5 -8 -22 -3 -60 18 l-52 31 0 84 c0 46 2 84 5 84 3 0 27 -12 55 -27z
m284 -165 c47 -27 56 -37 56 -60 0 -18 -5 -28 -15 -28 -11 0 -15 -12 -15 -45
0 -49 -10 -56 -48 -29 -18 12 -22 25 -22 68 0 39 -4 55 -15 60 -16 6 -21 66
-6 66 5 0 34 -14 65 -32z m232 -151 c9 -15 14 -43 12 -60 -3 -28 -6 -32 -33
-31 -16 0 -34 -5 -38 -13 -7 -11 -13 -10 -37 2 -29 15 -30 17 -30 94 0 43 3
81 6 84 12 12 105 -47 120 -76z m84 -32 c31 -16 32 -19 51 -110 17 -83 25 -86
21 -10 -4 78 5 82 80 34 52 -34 64 -59 54 -113 -4 -18 -2 -44 3 -57 8 -19 10
-10 10 44 1 65 2 68 23 65 12 -2 27 -13 34 -25 8 -17 13 -20 22 -11 13 13 36
-2 53 -35 8 -14 7 -23 -6 -37 -15 -16 -15 -20 2 -54 14 -31 15 -39 4 -46 -20
-12 -39 -2 -56 29 -8 14 -14 20 -15 14 0 -19 -23 -16 -48 7 -12 11 -27 20 -34
20 -18 1 -48 25 -48 39 0 7 -4 10 -9 6 -11 -6 -61 15 -61 27 0 4 -8 8 -18 8
-19 0 -62 34 -62 49 0 5 -8 7 -18 4 -10 -2 -29 4 -42 15 -23 18 -23 21 -11 63
19 62 30 89 36 89 3 0 19 -7 35 -15z"/>
<path fill="white" stroke-width="3.0" stroke-linecap="butt" stroke-opacity="1.0" stroke="rgb(255,255,255)"  stroke-linejoin="round" d="M1691 1684 c0 -11 3 -14 6 -6 3 7 2 16 -1 19 -3 4 -6 -2 -5 -13z"/>
<path fill="white" stroke-width="3.0" stroke-linecap="butt" stroke-opacity="1.0" stroke="rgb(255,255,255)"  stroke-linejoin="round" d="M1971 1534 c0 -11 3 -14 6 -6 3 7 2 16 -1 19 -3 4 -6 -2 -5 -13z"/>
</g>
</svg>
